<svg width="148" height="146" viewBox="0 0 148 146" fill="none" xmlns="http://www.w3.org/2000/svg">
<path d="M126.068 145.398C126.068 145.447 102.107 145.488 72.5592 145.488C43.0117 145.488 19.0404 145.447 19.0404 145.398C19.0404 145.35 42.9979 145.309 72.5592 145.309C102.12 145.309 126.068 145.354 126.068 145.398Z" fill="#263238"/>
<path d="M102.721 103.156C97.3898 99.4329 96.1821 92.5213 96.3925 86.3068C96.4271 85.2716 96.3132 84.1744 96.8066 83.2668C97.3001 82.3593 98.4526 81.7348 99.3808 82.1696C100.15 82.5319 100.485 83.429 100.916 84.1709C101.492 85.159 102.335 85.9641 103.349 86.4932C104.008 86.8382 104.826 87.0452 105.478 86.6864C106.375 86.193 106.479 84.9611 106.472 83.9259C106.472 82.0005 106.46 80.0773 106.437 78.1565C106.375 77.1251 106.48 76.0904 106.748 75.0924C107.069 74.1124 107.783 73.2049 108.759 72.9288C109.736 72.6528 110.954 73.2221 111.175 74.2297C111.213 74.6565 111.223 75.0852 111.206 75.5133C111.234 75.9447 111.434 76.4174 111.837 76.5485C112.241 76.6796 112.662 76.3794 112.973 76.0758C114.035 75.0406 114.76 73.6914 115.433 72.3595C116.106 71.0276 116.765 69.6577 117.731 68.5224C118.697 67.3872 120.033 66.4866 121.527 66.4003C123.021 66.314 124.577 67.2319 124.95 68.6812C125.322 70.1304 124.477 71.6107 123.569 72.7874C122.2 74.534 120.586 76.0738 118.777 77.3594C118.423 77.5522 118.142 77.8534 117.973 78.2186C117.748 78.9087 118.4 79.5989 119.08 79.8162C119.85 80.0716 120.685 79.9922 121.496 80.0888C122.307 80.1854 123.169 80.5374 123.476 81.2965C123.897 82.3524 123.014 83.4566 122.148 84.1812C120.409 85.6305 118.434 86.7708 116.309 87.5525C115.55 87.8285 114.753 88.0735 114.139 88.6049C113.525 89.1363 113.159 90.0645 113.528 90.7926C113.897 91.5207 114.846 91.7519 115.643 91.6035C116.441 91.4551 117.148 91.0272 117.907 90.7408C119.325 90.206 121.154 90.3026 122.048 91.5276C122.325 91.9495 122.5 92.43 122.56 92.9311C122.62 93.4322 122.562 93.9404 122.393 94.4157C122.047 95.3617 121.516 96.2287 120.83 96.9657C118.57 99.6659 115.633 101.718 112.321 102.911C109.032 104.05 105.985 104.36 102.717 103.163" fill="#4CAF4F"/>
<path d="M123.431 67.2526C123.431 67.2526 123.4 67.2871 123.331 67.3492L123.024 67.6218C122.755 67.8634 122.358 68.2153 121.858 68.6812C120.439 69.9983 119.122 71.4205 117.917 72.9358C117.148 73.8916 116.351 74.9751 115.502 76.1517C114.653 77.3284 113.777 78.5982 112.907 79.9474C111.98 81.3701 111.131 82.8423 110.364 84.3572C109.964 85.1474 109.612 85.9721 109.249 86.8141L108.18 89.3848C106.77 92.6228 105.542 95.9371 104.501 99.3121C103.663 102.074 103.086 104.907 102.776 107.776C102.575 109.713 102.543 111.663 102.679 113.605C102.735 114.295 102.786 114.823 102.835 115.181C102.855 115.354 102.869 115.492 102.883 115.592V115.734C102.868 115.689 102.858 115.642 102.852 115.596C102.835 115.495 102.814 115.361 102.786 115.188C102.724 114.843 102.659 114.298 102.597 113.608C102.43 111.663 102.442 109.706 102.631 107.763C102.922 104.881 103.487 102.034 104.318 99.2604C105.35 95.8759 106.575 92.5532 107.986 89.3088L109.084 86.7485C109.446 85.91 109.801 85.0784 110.205 84.2848C110.978 82.7652 111.834 81.2896 112.769 79.8646C113.652 78.4843 114.543 77.2352 115.381 76.0689C116.22 74.9026 117.03 73.8122 117.797 72.8598C119.014 71.3486 120.348 69.9364 121.789 68.6363C122.3 68.1774 122.707 67.8323 122.983 67.6011L123.304 67.3423C123.343 67.3081 123.386 67.278 123.431 67.2526Z" fill="#263238"/>
<path d="M110.25 84.2779C110.201 84.1358 110.168 83.9889 110.15 83.8397C110.095 83.5533 110.033 83.1496 109.96 82.6251C109.812 81.5899 109.66 80.1717 109.498 78.6017C109.336 77.0317 109.153 75.61 109.001 74.5852C108.922 74.0745 108.853 73.6639 108.804 73.3775C108.767 73.2309 108.747 73.0802 108.746 72.9289C108.805 73.0671 108.848 73.2119 108.873 73.3602C108.949 73.6432 109.035 74.0503 109.132 74.5645C109.329 75.5997 109.522 77.0075 109.684 78.581C109.846 80.1544 109.984 81.5347 110.091 82.6078C110.143 83.0909 110.188 83.5015 110.222 83.8293C110.249 83.9773 110.259 84.1278 110.25 84.2779Z" fill="#263238"/>
<path d="M123.528 81.8003C123.36 81.8369 123.189 81.8577 123.017 81.8625C122.672 81.8935 122.182 81.9349 121.575 82.0039C120.36 82.1351 118.69 82.3766 116.858 82.7217C115.026 83.0667 113.38 83.4566 112.196 83.7568C111.606 83.9087 111.13 84.0467 110.816 84.1399C110.648 84.1994 110.475 84.2411 110.298 84.2641C110.458 84.1839 110.624 84.1181 110.795 84.0674C111.12 83.9535 111.589 83.7948 112.175 83.6257C113.352 83.2806 114.998 82.87 116.837 82.5181C118.395 82.2202 119.967 82.0013 121.547 81.8625C122.158 81.8107 122.651 81.79 122.997 81.7831C123.174 81.771 123.352 81.7768 123.528 81.8003Z" fill="#263238"/>
<path d="M104.488 99.0189C104.451 98.9689 104.421 98.9144 104.398 98.8567L104.17 98.377C103.973 97.9595 103.708 97.3419 103.39 96.5862C102.748 95.0679 101.931 92.9424 101.061 90.5821C100.192 88.2219 99.391 86.0964 98.7837 84.5609C98.487 83.8155 98.242 83.2048 98.0591 82.7493L97.8659 82.2559C97.8391 82.199 97.8205 82.1385 97.8107 82.0764C97.8475 82.1264 97.8776 82.1809 97.9004 82.2386L98.1281 82.7182C98.3214 83.1358 98.5905 83.7534 98.908 84.5091C99.5498 86.0274 100.368 88.1529 101.237 90.5131C102.107 92.8733 102.907 94.9989 103.515 96.5344C103.811 97.2798 104.056 97.8905 104.236 98.346C104.315 98.5427 104.381 98.6911 104.432 98.8394C104.459 98.8963 104.478 98.9567 104.488 99.0189Z" fill="#263238"/>
<path d="M122.113 93.3357C122.058 93.3674 121.999 93.3918 121.937 93.4082L121.427 93.5807L119.539 94.1914C117.945 94.709 115.743 95.4475 113.328 96.2618C110.913 97.0761 108.701 97.8008 107.096 98.2839C106.296 98.5288 105.644 98.7152 105.191 98.8394L104.67 98.974C104.61 98.9932 104.547 99.0059 104.484 99.0119C104.539 98.9802 104.599 98.9559 104.66 98.9395L105.171 98.7669L107.058 98.1562C108.652 97.6386 110.854 96.9002 113.269 96.0858C115.685 95.2715 117.893 94.5468 119.498 94.0638C120.302 93.8188 120.95 93.6324 121.406 93.5082L121.927 93.3736C121.987 93.3544 122.05 93.3417 122.113 93.3357Z" fill="#263238"/>
<path d="M114.922 9.63455L113.145 10.2695L112.383 7.94721C110.982 3.66502 106.517 1.39107 102.414 2.83687C98.311 4.28267 96.1268 8.97894 97.5277 13.2611L98.2903 15.5834L96.5064 16.2217C95.8261 16.4856 95.2737 17.0014 94.964 17.6621C94.6542 18.3227 94.611 19.0773 94.8432 19.769L99.7879 34.8791C99.8905 35.2215 100.061 35.5398 100.289 35.8151C100.517 36.0903 100.798 36.3169 101.116 36.4814C101.433 36.6459 101.78 36.7449 102.137 36.7726C102.493 36.8002 102.851 36.7559 103.19 36.6424L121.606 30.0552C122.295 29.7918 122.856 29.2714 123.169 28.6034C123.482 27.9354 123.524 27.1719 123.286 26.4735L118.338 11.3633C118.233 11.0219 118.06 10.7051 117.83 10.432C117.599 10.1589 117.316 9.93494 116.997 9.7736C116.679 9.61225 116.33 9.51679 115.974 9.4929C115.617 9.46901 115.26 9.51719 114.922 9.63455ZM100.885 12.05C100.507 10.9365 100.575 9.72012 101.074 8.65557C101.574 7.59102 102.465 6.76094 103.563 6.33923C104.105 6.15381 104.679 6.07945 105.25 6.1206C105.821 6.16175 106.378 6.31755 106.888 6.57873C107.398 6.8399 107.85 7.20109 108.217 7.64074C108.584 8.08039 108.859 8.58949 109.025 9.13767L109.784 11.4599L101.644 14.3722L100.885 12.05ZM111.237 25.459L112.5 29.3168C112.523 29.3941 112.516 29.4774 112.479 29.5494C112.442 29.6214 112.379 29.6765 112.303 29.7032L110.533 30.3347C110.463 30.3542 110.387 30.3457 110.323 30.311C110.259 30.2763 110.21 30.218 110.188 30.1484L108.915 26.3078C108.213 26.2696 107.539 26.0178 106.984 25.5861C106.429 25.1544 106.019 24.5635 105.809 23.8924C105.509 23.0053 105.564 22.0364 105.962 21.1887C106.36 20.3409 107.071 19.6801 107.945 19.3445C108.377 19.197 108.834 19.138 109.289 19.1708C109.744 19.2037 110.188 19.3278 110.594 19.5358C111 19.7438 111.36 20.0315 111.652 20.3816C111.945 20.7317 112.164 21.1371 112.296 21.5736C112.518 22.2553 112.537 22.9869 112.349 23.6789C112.162 24.3709 111.776 24.9931 111.24 25.4694L111.237 25.459Z" fill="#4CAF4F"/>
<path d="M113.066 10.228C113.066 10.2763 109.771 11.5151 105.671 12.9885C101.572 14.4619 98.2283 15.6455 98.211 15.611C98.1938 15.5765 101.506 14.3273 105.609 12.8505C109.712 11.3736 113.049 10.1832 113.066 10.228Z" fill="#263238"/>
<path d="M116.979 10.863C116.994 10.8929 117.007 10.9241 117.017 10.9561C117.044 11.0252 117.075 11.1149 117.117 11.2253C117.207 11.4772 117.331 11.8257 117.486 12.2605L118.811 16.1182C119.363 17.7538 120.022 19.6931 120.754 21.8462C121.099 22.9263 121.506 24.0512 121.886 25.2347C122.089 25.8446 122.176 26.487 122.144 27.1291C122.115 27.463 122.02 27.7878 121.865 28.0849C121.699 28.381 121.478 28.6423 121.213 28.8544C120.68 29.2435 120.088 29.5452 119.46 29.7481L117.683 30.3865L114.318 31.5907L108.621 33.6197L104.774 34.9723L103.739 35.3174L103.463 35.4071C103.433 35.4202 103.402 35.4284 103.37 35.4312C103.37 35.4312 103.397 35.4312 103.456 35.3898L103.725 35.2829L104.76 34.893L108.587 33.4851L114.274 31.4147L117.631 30.2001L119.408 29.5583C120.018 29.3637 120.593 29.0712 121.109 28.6922C121.356 28.4954 121.562 28.2529 121.716 27.9779C121.863 27.7032 121.951 27.4014 121.975 27.0911C122.007 26.4725 121.923 25.8534 121.727 25.2658C121.354 24.0926 120.961 22.9573 120.605 21.8773C119.888 19.7207 119.225 17.7745 118.701 16.1389C118.176 14.5034 117.734 13.1887 117.431 12.2639C117.286 11.8119 117.175 11.4599 117.086 11.2046L117.003 10.9285C116.993 10.9076 116.984 10.8856 116.979 10.863Z" fill="#263238"/>
<path d="M107.262 6.10459C107.262 6.10459 107.079 6.01487 106.741 5.87685C106.259 5.69165 105.749 5.58899 105.233 5.5732C104.468 5.54696 103.707 5.69074 103.004 5.99417C102.149 6.372 101.419 6.98313 100.896 7.75743C100.369 8.52951 100.086 9.44192 100.085 10.3764C100.092 11.1424 100.208 11.9034 100.43 12.6366C100.609 13.2646 100.795 13.7649 100.92 14.1134C100.993 14.2905 101.053 14.4727 101.099 14.6586C101.001 14.4931 100.919 14.3187 100.854 14.1376C100.713 13.7925 100.509 13.3025 100.309 12.6711C100.063 11.9302 99.9295 11.1568 99.9121 10.3764C99.9029 9.40661 100.192 8.4574 100.74 7.65736C101.281 6.85479 102.042 6.22475 102.931 5.84234C103.656 5.53725 104.441 5.40267 105.226 5.44898C105.753 5.47585 106.271 5.59863 106.755 5.81129C106.884 5.8709 107.008 5.94011 107.127 6.01832C107.176 6.03989 107.222 6.06899 107.262 6.10459Z" fill="#263238"/>
<path d="M107.421 19.6068C107.476 19.5734 107.533 19.5446 107.593 19.5205C107.766 19.4426 107.945 19.3791 108.128 19.3308C108.419 19.2449 108.719 19.1939 109.022 19.1789C109.434 19.1568 109.846 19.219 110.233 19.3618C111.116 19.6724 111.927 20.573 112.327 21.7772C112.519 22.4235 112.519 23.1116 112.327 23.7579C112.115 24.4593 111.733 25.0979 111.216 25.6177L111.237 25.5246C111.696 26.784 112.196 28.1505 112.714 29.5756L112.745 29.6618L112.659 29.6929L111.868 29.9551L110.143 30.5314L110.057 30.559L110.029 30.4727C109.557 29.0442 109.039 27.7123 108.649 26.4045L108.725 26.4631C108.05 26.4071 107.407 26.1539 106.875 25.7351C106.394 25.3645 106 24.8935 105.719 24.3548C105.467 23.8771 105.341 23.3424 105.354 22.8021C105.37 22.2498 105.508 21.7078 105.758 21.2151C106.007 20.7224 106.363 20.291 106.8 19.9519C106.979 19.8061 107.181 19.6896 107.396 19.6068C107.202 19.7224 107.013 19.848 106.831 19.9829C106.351 20.3883 105.984 20.9099 105.764 21.4977C105.576 21.941 105.487 22.4206 105.506 22.902C105.524 23.3835 105.649 23.8549 105.871 24.2824C106.147 24.8006 106.532 25.2527 107 25.6074C107.507 26.0055 108.12 26.2455 108.763 26.2975H108.822L108.839 26.3493C109.218 27.6329 109.739 28.9752 110.219 30.4106L110.105 30.3554L111.83 29.7792L112.617 29.5135L112.562 29.6308C112.048 28.2057 111.551 26.8358 111.096 25.5763V25.5246L111.137 25.4832C111.639 24.9849 112.013 24.3729 112.227 23.6992C112.41 23.081 112.41 22.423 112.227 21.8048C111.851 20.6454 111.075 19.7655 110.233 19.455C109.86 19.3113 109.462 19.2444 109.063 19.2583C108.765 19.2651 108.469 19.3056 108.18 19.3791C107.666 19.5067 107.424 19.6241 107.421 19.6068Z" fill="#263238"/>
<path d="M96.7548 119.239L62.2868 119.081C60.2963 119.07 58.3915 118.269 56.9908 116.855C55.5901 115.441 54.808 113.528 54.8162 111.538L55.182 25.1312C55.1861 24.145 55.3844 23.1693 55.7658 22.2599C56.1472 21.3504 56.704 20.5251 57.4046 19.831C58.1051 19.1368 58.9355 18.5876 59.8484 18.2146C60.7614 17.8416 61.7388 17.6522 62.725 17.6572L97.1896 17.8159C99.1801 17.826 101.085 18.6256 102.487 20.0393C103.888 21.4529 104.671 23.365 104.664 25.3555L104.298 111.758C104.294 112.745 104.095 113.721 103.714 114.631C103.333 115.541 102.776 116.367 102.076 117.061C101.375 117.756 100.545 118.306 99.6319 118.679C98.7189 119.053 97.7413 119.243 96.7548 119.239Z" fill="#455A64"/>
<path d="M97.1378 20.7869H90.4575C90.2395 20.7909 90.0245 20.8379 89.8246 20.9251C89.6248 21.0122 89.4441 21.1379 89.2929 21.2949C89.1416 21.4519 89.0228 21.6372 88.9432 21.8401C88.8635 22.0431 88.8247 22.2597 88.8288 22.4777V23.6889C88.8329 23.9067 88.794 24.1231 88.7144 24.3259C88.6347 24.5286 88.5158 24.7137 88.3645 24.8704C88.2132 25.0272 88.0325 25.1525 87.8327 25.2393C87.6329 25.3261 87.4179 25.3726 87.2001 25.3762L74.1776 25.3175C73.737 25.3058 73.3191 25.1197 73.0157 24.8001C72.7123 24.4805 72.5481 24.0535 72.5592 23.6129V22.4018C72.5704 21.9618 72.4067 21.5354 72.104 21.2158C71.8013 20.8963 71.3843 20.7098 70.9443 20.6972H68.5945L62.7457 20.6696C61.3546 20.6613 60.0168 21.2046 59.0254 22.1805C58.034 23.1564 57.4696 24.4854 57.456 25.8765L57.1109 110.216C57.1077 110.906 57.2405 111.59 57.5017 112.229C57.7628 112.868 58.1473 113.449 58.633 113.939C59.1188 114.429 59.6963 114.819 60.3327 115.086C60.9691 115.353 61.6519 115.492 62.342 115.496L96.7376 115.654C97.4282 115.657 98.1126 115.525 98.7518 115.263C99.3911 115.002 99.9726 114.617 100.463 114.131C100.954 113.645 101.344 113.067 101.611 112.43C101.878 111.793 102.017 111.11 102.02 110.42L102.366 26.0801C102.374 24.6851 101.828 23.3439 100.847 22.3513C99.8672 21.3587 98.5329 20.796 97.1378 20.7869Z" fill="white"/>
<path d="M92.5106 104.402L66.9347 104.291C66.669 104.291 66.4551 104.002 66.4585 103.65L66.4861 96.9588C66.4861 96.6138 66.7035 96.317 66.9692 96.317L92.5451 96.4343C92.6923 96.4598 92.824 96.5411 92.9127 96.6613C93.0015 96.7816 93.0403 96.9314 93.0213 97.0796L92.9971 103.763C92.9971 104.119 92.7763 104.405 92.5106 104.402Z" fill="#4CAF4F"/>
<path d="M74.7108 100.321C74.5696 100.321 74.4338 100.299 74.3035 100.253C74.175 100.206 74.0755 100.147 74.0049 100.074L74.0836 99.9194C74.1506 99.9846 74.2402 100.04 74.3524 100.085C74.4664 100.128 74.5859 100.15 74.7108 100.15C74.8302 100.15 74.927 100.136 75.0012 100.107C75.0772 100.076 75.1324 100.035 75.1668 99.9846C75.203 99.9339 75.2211 99.8778 75.2211 99.8163C75.2211 99.7421 75.1994 99.6823 75.156 99.6371C75.1143 99.5919 75.0591 99.5566 74.9904 99.5312C74.9216 99.5041 74.8456 99.4805 74.7623 99.4606C74.6791 99.4407 74.5958 99.4199 74.5126 99.3982C74.4293 99.3747 74.3524 99.3439 74.2818 99.3059C74.213 99.2679 74.1569 99.2181 74.1135 99.1566C74.0719 99.0932 74.0511 99.0109 74.0511 98.9095C74.0511 98.8154 74.0755 98.7295 74.1244 98.6516C74.175 98.572 74.252 98.5087 74.3551 98.4616C74.4583 98.4127 74.5904 98.3883 74.7515 98.3883C74.8583 98.3883 74.9641 98.4037 75.0691 98.4345C75.1741 98.4634 75.2646 98.5041 75.3406 98.5566L75.2727 98.7168C75.1913 98.6625 75.1044 98.6227 75.0121 98.5973C74.9216 98.572 74.8338 98.5593 74.7488 98.5593C74.6347 98.5593 74.5406 98.5747 74.4664 98.6055C74.3922 98.6363 74.337 98.6779 74.3008 98.7304C74.2664 98.781 74.2492 98.839 74.2492 98.9041C74.2492 98.9783 74.2701 99.038 74.3117 99.0833C74.3551 99.1285 74.4112 99.1638 74.48 99.1892C74.5506 99.2145 74.6275 99.2371 74.7108 99.257C74.794 99.2769 74.8764 99.2987 74.9578 99.3222C75.041 99.3457 75.1171 99.3765 75.1858 99.4145C75.2564 99.4507 75.3125 99.4996 75.3542 99.5611C75.3976 99.6226 75.4193 99.7032 75.4193 99.8027C75.4193 99.895 75.394 99.981 75.3433 100.061C75.2926 100.138 75.2148 100.202 75.1098 100.251C75.0067 100.298 74.8736 100.321 74.7108 100.321ZM75.857 100.305V98.4046H76.0579V100.305H75.857ZM76.6762 100.305V98.4046H76.8418L78.1531 100.055H78.0662V98.4046H78.2644V100.305H78.0988L76.7902 98.6544H76.8771V100.305H76.6762ZM79.7181 100.321C79.5733 100.321 79.4393 100.298 79.3163 100.251C79.195 100.202 79.0891 100.134 78.9986 100.047C78.91 99.9602 78.8403 99.8579 78.7896 99.7403C78.7407 99.6226 78.7163 99.4941 78.7163 99.3548C78.7163 99.2154 78.7407 99.0869 78.7896 98.9693C78.8403 98.8516 78.9109 98.7494 79.0014 98.6625C79.0918 98.5756 79.1977 98.5087 79.319 98.4616C79.442 98.4127 79.576 98.3883 79.7208 98.3883C79.8656 98.3883 79.9977 98.4109 80.1171 98.4562C80.2384 98.5014 80.3415 98.5702 80.4266 98.6625L80.3017 98.7901C80.2221 98.7105 80.1343 98.6534 80.0384 98.6191C79.9425 98.5847 79.8393 98.5675 79.7289 98.5675C79.6113 98.5675 79.5027 98.5874 79.4031 98.6272C79.3054 98.6652 79.2194 98.7204 79.1452 98.7928C79.0728 98.8634 79.0158 98.9466 78.9742 99.0426C78.9344 99.1367 78.9145 99.2407 78.9145 99.3548C78.9145 99.467 78.9344 99.571 78.9742 99.667C79.0158 99.7629 79.0728 99.847 79.1452 99.9194C79.2194 99.99 79.3054 100.045 79.4031 100.085C79.5027 100.123 79.6104 100.142 79.7262 100.142C79.8348 100.142 79.937 100.126 80.033 100.093C80.1307 100.061 80.2203 100.005 80.3017 99.9276L80.4157 100.08C80.3253 100.159 80.2194 100.22 80.0981 100.261C79.9769 100.301 79.8502 100.321 79.7181 100.321ZM80.223 100.055V99.3548H80.4157V100.08L80.223 100.055ZM82.4604 100.321C82.2179 100.321 82.0269 100.252 81.8876 100.112C81.7482 99.9728 81.6785 99.7665 81.6785 99.4932V98.4046H81.8794V99.4851C81.8794 99.7095 81.9301 99.8751 82.0315 99.9819C82.1328 100.089 82.2758 100.142 82.4604 100.142C82.6468 100.142 82.7907 100.089 82.892 99.9819C82.9934 99.8751 83.0441 99.7095 83.0441 99.4851V98.4046H83.2395V99.4932C83.2395 99.7665 83.1698 99.9728 83.0305 100.112C82.8929 100.252 82.7029 100.321 82.4604 100.321ZM83.8449 100.305V98.4046H84.5562C84.7172 98.4046 84.8557 98.4308 84.9715 98.4833C85.0874 98.534 85.176 98.6082 85.2376 98.7059C85.3009 98.8019 85.3326 98.9186 85.3326 99.0561C85.3326 99.1901 85.3009 99.3059 85.2376 99.4036C85.176 99.4996 85.0874 99.5738 84.9715 99.6262C84.8557 99.6787 84.7172 99.705 84.5562 99.705H83.9562L84.0458 99.61V100.305H83.8449ZM84.0458 99.6262L83.9562 99.5285H84.5507C84.7408 99.5285 84.8847 99.4878 84.9824 99.4063C85.0819 99.3231 85.1317 99.2064 85.1317 99.0561C85.1317 98.9041 85.0819 98.7865 84.9824 98.7032C84.8847 98.62 84.7408 98.5783 84.5507 98.5783H83.9562L84.0458 98.4833V99.6262Z" fill="#E8E8E3"/>
<path d="M72.0361 45.5795L63.1613 45.5392L63.1539 47.1679L72.0287 47.2082L72.0361 45.5795Z" fill="#4CAF4F"/>
<path opacity="0.1" d="M72.0361 45.5795L63.1613 45.5392L63.1539 47.1679L72.0287 47.2082L72.0361 45.5795Z" fill="black"/>
<path d="M98.0522 55.5793C98.1219 55.5722 98.1903 55.556 98.2557 55.531C98.3512 55.4936 98.4343 55.4301 98.4953 55.3477C98.5564 55.2653 98.5929 55.1674 98.6008 55.0651C98.6008 54.5165 98.6008 53.7159 98.6008 52.6877C98.6008 52.1735 98.6008 51.5973 98.6008 50.9624C98.6008 50.8071 98.6008 50.6449 98.6008 50.4827C98.6233 50.3254 98.589 50.1651 98.5042 50.0307C98.4567 49.9663 98.3949 49.9137 98.3236 49.8772C98.2524 49.8407 98.1736 49.8212 98.0936 49.8202H97.5553H92.5692L63.7083 49.7133C63.6345 49.712 63.5614 49.7286 63.4953 49.7616C63.4292 49.7947 63.3721 49.8432 63.3288 49.903C63.2455 50.038 63.2136 50.1985 63.2391 50.3551C63.2391 50.7001 63.2391 51.0452 63.2391 51.3902C63.2391 52.0804 63.2391 52.7705 63.2391 53.4606C63.2391 53.8057 63.2391 54.1507 63.2391 54.4958C63.2247 54.6565 63.2247 54.8182 63.2391 54.9789C63.2572 55.0478 63.2909 55.1116 63.3375 55.1654C63.3842 55.2193 63.4426 55.2617 63.5082 55.2894C63.5762 55.3165 63.649 55.3294 63.7221 55.3274H65.4785L73.1423 55.3688L86.1165 55.4481L94.8638 55.5172L97.2413 55.5448H97.8589C98.0004 55.5448 98.0694 55.5448 98.0694 55.5448H97.8589H97.2413H94.8638H86.1165L73.1423 55.5034L65.4785 55.4723H63.7221C63.6255 55.4762 63.5291 55.4598 63.4392 55.424C63.3483 55.3852 63.2675 55.3262 63.203 55.2515C63.1384 55.1767 63.0917 55.0882 63.0665 54.9927C63.0466 54.9021 63.0396 54.8092 63.0458 54.7166V54.4613C63.0458 54.1162 63.0458 53.7712 63.0458 53.4261C63.0458 52.736 63.0458 52.0459 63.0458 51.3557C63.0458 51.0107 63.0458 50.6656 63.0458 50.3206C63.0392 50.2287 63.0392 50.1364 63.0458 50.0445C63.0588 49.943 63.098 49.8466 63.1597 49.765C63.2192 49.6817 63.298 49.6141 63.3893 49.5678C63.4807 49.5215 63.5818 49.498 63.6842 49.4993L92.545 49.658L97.5311 49.6925H98.0694C98.1643 49.6926 98.2577 49.7156 98.3418 49.7594C98.4259 49.8033 98.4981 49.8667 98.5525 49.9444C98.6498 50.0945 98.689 50.2748 98.6629 50.4517C98.6629 50.6139 98.6629 50.776 98.6629 50.9313C98.6629 51.5593 98.6629 52.1356 98.6629 52.6566C98.6629 53.6918 98.6388 54.4854 98.6319 55.0375C98.6234 55.1437 98.5848 55.2452 98.5207 55.3302C98.4565 55.4152 98.3694 55.48 98.2695 55.5172C98.2042 55.5576 98.129 55.5791 98.0522 55.5793Z" fill="#E0E0E0"/>
<path d="M82.0586 51.4454H65.827V52.9672H82.0586V51.4454Z" fill="#4CAF4F"/>
<path opacity="0.2" d="M82.0586 51.4454H65.827V52.9672H82.0586V51.4454Z" fill="white"/>
<path d="M71.9756 60.4374L63.1007 60.3971L63.0933 62.0258L71.9682 62.066L71.9756 60.4374Z" fill="#4CAF4F"/>
<path opacity="0.1" d="M71.9756 60.4374L63.1007 60.3971L63.0933 62.0258L71.9682 62.066L71.9756 60.4374Z" fill="black"/>
<path d="M97.8279 70.4376C97.8976 70.429 97.9667 70.4163 98.0349 70.3996C98.1313 70.3689 98.22 70.318 98.295 70.2501C98.37 70.1822 98.4296 70.0991 98.4697 70.0062C98.524 69.8669 98.5453 69.7169 98.5318 69.568C98.5318 69.4024 98.5318 69.223 98.5318 69.0228C98.5318 68.6225 98.5318 68.1671 98.5318 67.6426V65.4515C98.5483 65.2928 98.5132 65.1331 98.4318 64.996C98.3467 64.8553 98.2128 64.7509 98.0556 64.7027C97.8838 64.672 97.7088 64.6627 97.5346 64.6751H92.5692L63.8085 64.5681C63.6538 64.5685 63.5044 64.625 63.3883 64.7272C63.2722 64.8294 63.1971 64.9703 63.177 65.1236C63.177 65.4515 63.177 65.8138 63.177 66.1588C63.177 66.8489 63.177 67.5391 63.177 68.2292C63.177 68.5742 63.177 68.9193 63.177 69.2644C63.1641 69.4256 63.1711 69.5879 63.1977 69.7474C63.2408 69.8874 63.3295 70.0088 63.4496 70.0925C63.577 70.1734 63.7268 70.212 63.8775 70.2029H64.3571H65.3543L72.9905 70.2409L85.9199 70.3202L94.6361 70.3893L97.0067 70.4169H94.6361H85.9199L72.9836 70.4031L65.3474 70.3755H63.8464C63.6598 70.3865 63.4746 70.3369 63.3185 70.234C63.1615 70.1252 63.0469 69.9655 62.9941 69.782C62.9632 69.6066 62.9539 69.4282 62.9665 69.2506C62.9665 68.9055 62.9665 68.5604 62.9665 68.2154C62.9665 67.5253 62.9665 66.8351 62.9665 66.145C62.9665 65.8 62.9665 65.4549 62.9665 65.1098C62.9917 64.9125 63.0879 64.7312 63.2372 64.5997C63.3864 64.4682 63.5785 64.3956 63.7774 64.3956L92.5381 64.5543L97.5036 64.5923C97.6884 64.5809 97.874 64.5937 98.0556 64.6302C98.2349 64.6888 98.3861 64.8117 98.4801 64.9753C98.5693 65.1273 98.608 65.3037 98.5905 65.4791C98.5905 65.6412 98.5905 65.8 98.5905 65.9587C98.5905 66.5832 98.5905 67.156 98.5905 67.684C98.5905 68.2119 98.5905 68.6571 98.5905 69.0642C98.5905 69.2609 98.5905 69.4438 98.5905 69.6129C98.603 69.7672 98.5782 69.9222 98.518 70.0649C98.4732 70.1601 98.4084 70.2445 98.328 70.3124C98.2477 70.3803 98.1536 70.4301 98.0522 70.4583C97.9768 70.4645 97.9009 70.4575 97.8279 70.4376Z" fill="#E0E0E0"/>
<path d="M71.9087 75.9404L63.0338 75.9001L63.0264 77.5288L71.9013 77.5691L71.9087 75.9404Z" fill="#4CAF4F"/>
<path opacity="0.1" d="M71.9087 75.9404L63.0338 75.9001L63.0264 77.5288L71.9013 77.5691L71.9087 75.9404Z" fill="black"/>
<path d="M97.7589 85.9342C97.8286 85.926 97.8978 85.9133 97.9659 85.8963C98.0619 85.8658 98.1502 85.8152 98.2252 85.748C98.3002 85.6808 98.36 85.5984 98.4007 85.5063C98.4548 85.367 98.476 85.217 98.4628 85.0681C98.4628 84.899 98.4628 84.7231 98.4628 84.5195C98.4628 84.1226 98.4628 83.6637 98.4628 83.1392V80.9481C98.4793 80.7895 98.4442 80.6297 98.3627 80.4926C98.2756 80.3545 98.1423 80.2518 97.9866 80.2028C97.8149 80.1709 97.6399 80.1604 97.4656 80.1717H92.5002L63.7394 80.0647C63.5847 80.0651 63.4354 80.1216 63.3193 80.2238C63.2031 80.326 63.128 80.4669 63.108 80.6203C63.108 80.9653 63.108 81.3104 63.108 81.6555C63.108 82.3456 63.108 83.0357 63.108 83.7258C63.108 84.0709 63.108 84.4159 63.108 84.761C63.0951 84.9211 63.1021 85.0822 63.1287 85.2406C63.17 85.3814 63.2591 85.5034 63.3806 85.5857C63.5072 85.6684 63.6576 85.7072 63.8084 85.6961H65.3095L72.9456 85.7375L85.875 85.8169L94.5912 85.8859L96.9618 85.9135H94.5912H85.875L72.9456 85.8755L65.3095 85.8445H63.8084C63.6217 85.8571 63.436 85.8073 63.2805 85.703C63.1235 85.5943 63.0089 85.4346 62.9561 85.251C62.9252 85.0757 62.9159 84.8972 62.9285 84.7196C62.9285 84.3745 62.9285 84.0295 62.9285 83.6844C62.9285 82.9943 62.9285 82.3042 62.9285 81.6141C62.9285 81.269 62.9285 80.9239 62.9285 80.5616C62.9529 80.3646 63.0485 80.1833 63.1971 80.0518C63.3458 79.9202 63.5375 79.8475 63.736 79.8474L92.4967 80.0061L97.4621 80.044C97.647 80.0327 97.8326 80.0454 98.0142 80.082C98.1935 80.1406 98.3447 80.2635 98.4387 80.427C98.5279 80.579 98.5666 80.7554 98.5491 80.9308C98.5491 81.093 98.5491 81.2552 98.5491 81.4105C98.5491 82.035 98.5491 82.6078 98.5491 83.1358C98.5491 83.6637 98.5491 84.1088 98.5491 84.516C98.5491 84.7127 98.5491 84.8956 98.5491 85.0647C98.5623 85.219 98.5374 85.3742 98.4766 85.5167C98.4318 85.6119 98.367 85.6963 98.2866 85.7642C98.2062 85.8321 98.1122 85.8818 98.0108 85.9101C97.9299 85.9378 97.8436 85.946 97.7589 85.9342Z" fill="#E0E0E0"/>
<path d="M81.7122 66.7339L65.4807 66.6603L65.4738 68.182L81.7053 68.2556L81.7122 66.7339Z" fill="#4CAF4F"/>
<path opacity="0.2" d="M81.7122 66.7339L65.4807 66.6603L65.4738 68.182L81.7053 68.2556L81.7122 66.7339Z" fill="white"/>
<path d="M66.9485 83.1185C66.9384 83.2573 66.8877 83.39 66.8027 83.5003C66.7178 83.6105 66.6024 83.6934 66.4708 83.7387C66.3391 83.7839 66.1971 83.7895 66.0624 83.7548C65.9276 83.7201 65.806 83.6466 65.7126 83.5434C65.6192 83.4403 65.5582 83.3119 65.537 83.1744C65.5159 83.0368 65.5356 82.8961 65.5938 82.7696C65.6519 82.6432 65.7459 82.5365 65.864 82.463C65.9822 82.3895 66.1193 82.3522 66.2584 82.3559C66.4507 82.3666 66.6309 82.4527 66.7601 82.5954C66.8893 82.7382 66.957 82.9261 66.9485 83.1185Z" fill="#4CAF4F"/>
<path d="M69.1465 83.1289C69.1533 83.2261 69.14 83.3238 69.1074 83.4157C69.0749 83.5076 69.0237 83.5918 68.9572 83.6632C68.8907 83.7345 68.8102 83.7913 68.7208 83.8302C68.6314 83.8691 68.5349 83.8892 68.4374 83.8892C68.3399 83.8892 68.2434 83.8691 68.154 83.8302C68.0645 83.7913 67.9841 83.7345 67.9176 83.6632C67.851 83.5918 67.7999 83.5076 67.7674 83.4157C67.7348 83.3238 67.7215 83.2261 67.7283 83.1289C67.7215 83.0316 67.7348 82.9339 67.7674 82.842C67.7999 82.7501 67.851 82.6659 67.9176 82.5945C67.9841 82.5232 68.0645 82.4664 68.154 82.4275C68.2434 82.3886 68.3399 82.3685 68.4374 82.3685C68.5349 82.3685 68.6314 82.3886 68.7208 82.4275C68.8102 82.4664 68.8907 82.5232 68.9572 82.5945C69.0237 82.6659 69.0749 82.7501 69.1074 82.842C69.14 82.9339 69.1533 83.0316 69.1465 83.1289Z" fill="#4CAF4F"/>
<path d="M71.348 83.1392C71.3378 83.278 71.2871 83.4107 71.2021 83.521C71.1172 83.6312 71.0018 83.7141 70.8702 83.7594C70.7386 83.8046 70.5966 83.8102 70.4618 83.7755C70.327 83.7408 70.2054 83.6673 70.112 83.5641C70.0186 83.4609 69.9576 83.3326 69.9365 83.195C69.9153 83.0575 69.9351 82.9168 69.9932 82.7903C70.0513 82.6638 70.1453 82.5572 70.2634 82.4837C70.3816 82.4102 70.5187 82.3729 70.6578 82.3766C70.8498 82.3882 71.0295 82.4745 71.1585 82.6171C71.2875 82.7596 71.3555 82.9471 71.348 83.1392Z" fill="#4CAF4F"/>
<path d="M73.5461 83.1496C73.5359 83.2884 73.4852 83.4211 73.4003 83.5314C73.3153 83.6416 73.1999 83.7245 73.0683 83.7697C72.9367 83.815 72.7947 83.8206 72.6599 83.7859C72.5251 83.7512 72.4035 83.6777 72.3101 83.5745C72.2167 83.4713 72.1557 83.343 72.1346 83.2054C72.1135 83.0679 72.1332 82.9271 72.1913 82.8007C72.2494 82.6742 72.3434 82.5676 72.4615 82.4941C72.5797 82.4205 72.7168 82.3833 72.856 82.387C73.0479 82.3986 73.2276 82.4849 73.3566 82.6274C73.4856 82.77 73.5537 82.9574 73.5461 83.1496Z" fill="#4CAF4F"/>
<path d="M75.7441 83.1564C75.7346 83.2954 75.6844 83.4286 75.5998 83.5393C75.5153 83.65 75.4 83.7335 75.2684 83.7792C75.1368 83.825 74.9947 83.8311 74.8597 83.7967C74.7246 83.7624 74.6027 83.6891 74.509 83.586C74.4152 83.4829 74.3539 83.3546 74.3325 83.2169C74.3111 83.0792 74.3307 82.9383 74.3888 82.8116C74.4468 82.685 74.5409 82.5782 74.6591 82.5045C74.7774 82.4308 74.9147 82.3936 75.054 82.3973C75.2453 82.4089 75.4245 82.4947 75.5534 82.6365C75.6823 82.7783 75.7507 82.9649 75.7441 83.1564Z" fill="#4CAF4F"/>
<path d="M77.9456 83.1668C77.9362 83.3051 77.8866 83.4376 77.8028 83.548C77.7191 83.6585 77.6048 83.742 77.4742 83.7884C77.3436 83.8347 77.2023 83.8419 77.0676 83.809C76.933 83.776 76.8109 83.7045 76.7164 83.6031C76.6219 83.5017 76.5591 83.3748 76.5358 83.2382C76.5124 83.1016 76.5296 82.9611 76.585 82.8341C76.6405 82.7071 76.7318 82.599 76.8479 82.5232C76.964 82.4475 77.0997 82.4073 77.2383 82.4077C77.4326 82.4149 77.6162 82.4988 77.7488 82.6411C77.8814 82.7834 77.9522 82.9724 77.9456 83.1668Z" fill="#4CAF4F"/>
<path d="M80.1435 83.1772C80.1503 83.2745 80.137 83.3721 80.1045 83.464C80.0719 83.5559 80.0208 83.6402 79.9543 83.7115C79.8878 83.7828 79.8073 83.8397 79.7179 83.8786C79.6284 83.9174 79.532 83.9375 79.4345 83.9375C79.3369 83.9375 79.2405 83.9174 79.151 83.8786C79.0616 83.8397 78.9811 83.7828 78.9146 83.7115C78.8481 83.6402 78.797 83.5559 78.7644 83.464C78.7319 83.3721 78.7186 83.2745 78.7254 83.1772C78.7186 83.0799 78.7319 82.9823 78.7644 82.8903C78.797 82.7984 78.8481 82.7142 78.9146 82.6429C78.9811 82.5716 79.0616 82.5147 79.151 82.4758C79.2405 82.4369 79.3369 82.4169 79.4345 82.4169C79.532 82.4169 79.6284 82.4369 79.7179 82.4758C79.8073 82.5147 79.8878 82.5716 79.9543 82.6429C80.0208 82.7142 80.0719 82.7984 80.1045 82.8903C80.137 82.9823 80.1503 83.0799 80.1435 83.1772Z" fill="#4CAF4F"/>
<path d="M82.3416 83.1875C82.3322 83.3258 82.2826 83.4583 82.1988 83.5687C82.115 83.6792 82.0008 83.7627 81.8702 83.809C81.7396 83.8554 81.5983 83.8626 81.4636 83.8296C81.329 83.7967 81.2069 83.7252 81.1124 83.6237C81.0179 83.5223 80.9551 83.3955 80.9318 83.2589C80.9084 83.1223 80.9255 82.9818 80.981 82.8548C81.0365 82.7277 81.1278 82.6197 81.2439 82.5439C81.36 82.4682 81.4957 82.428 81.6343 82.4283C81.8286 82.4355 82.0122 82.5195 82.1448 82.6618C82.2774 82.8041 82.3482 82.9931 82.3416 83.1875Z" fill="#4CAF4F"/>
<path d="M84.5396 83.1979C84.5301 83.3369 84.4799 83.47 84.3954 83.5807C84.3108 83.6915 84.1956 83.7749 84.064 83.8207C83.9324 83.8664 83.7902 83.8725 83.6552 83.8382C83.5202 83.8038 83.3982 83.7305 83.3045 83.6274C83.2108 83.5243 83.1494 83.396 83.128 83.2583C83.1067 83.1206 83.1262 82.9797 83.1843 82.8531C83.2424 82.7264 83.3364 82.6196 83.4546 82.5459C83.5729 82.4723 83.7102 82.435 83.8495 82.4387C84.0408 82.4503 84.22 82.5362 84.3489 82.678C84.4778 82.8198 84.5463 83.0063 84.5396 83.1979Z" fill="#4CAF4F"/>
<g opacity="0.2">
<path d="M66.9485 83.1185C66.9384 83.2573 66.8877 83.39 66.8027 83.5003C66.7178 83.6105 66.6024 83.6934 66.4708 83.7387C66.3391 83.7839 66.1971 83.7895 66.0624 83.7548C65.9276 83.7201 65.806 83.6466 65.7126 83.5434C65.6192 83.4403 65.5582 83.3119 65.537 83.1744C65.5159 83.0368 65.5356 82.8961 65.5938 82.7696C65.6519 82.6432 65.7459 82.5365 65.864 82.463C65.9822 82.3895 66.1193 82.3522 66.2584 82.3559C66.4507 82.3666 66.6309 82.4527 66.7601 82.5954C66.8893 82.7382 66.957 82.9261 66.9485 83.1185Z" fill="white"/>
<path d="M69.1465 83.1289C69.1533 83.2261 69.14 83.3238 69.1074 83.4157C69.0749 83.5076 69.0237 83.5918 68.9572 83.6632C68.8907 83.7345 68.8102 83.7913 68.7208 83.8302C68.6314 83.8691 68.5349 83.8892 68.4374 83.8892C68.3399 83.8892 68.2434 83.8691 68.154 83.8302C68.0645 83.7913 67.9841 83.7345 67.9176 83.6632C67.851 83.5918 67.7999 83.5076 67.7674 83.4157C67.7348 83.3238 67.7215 83.2261 67.7283 83.1289C67.7215 83.0316 67.7348 82.9339 67.7674 82.842C67.7999 82.7501 67.851 82.6659 67.9176 82.5945C67.9841 82.5232 68.0645 82.4664 68.154 82.4275C68.2434 82.3886 68.3399 82.3685 68.4374 82.3685C68.5349 82.3685 68.6314 82.3886 68.7208 82.4275C68.8102 82.4664 68.8907 82.5232 68.9572 82.5945C69.0237 82.6659 69.0749 82.7501 69.1074 82.842C69.14 82.9339 69.1533 83.0316 69.1465 83.1289Z" fill="white"/>
<path d="M71.3481 83.1392C71.3379 83.278 71.2872 83.4107 71.2023 83.521C71.1173 83.6312 71.0019 83.7141 70.8703 83.7594C70.7387 83.8046 70.5967 83.8102 70.4619 83.7755C70.3271 83.7408 70.2055 83.6673 70.1121 83.5641C70.0187 83.4609 69.9577 83.3326 69.9366 83.195C69.9155 83.0575 69.9352 82.9168 69.9933 82.7903C70.0514 82.6638 70.1454 82.5572 70.2635 82.4837C70.3817 82.4102 70.5188 82.3729 70.658 82.3766C70.8499 82.3882 71.0296 82.4745 71.1586 82.6171C71.2876 82.7596 71.3557 82.9471 71.3481 83.1392Z" fill="white"/>
<path d="M73.5461 83.1496C73.5359 83.2884 73.4852 83.4211 73.4003 83.5314C73.3153 83.6416 73.1999 83.7245 73.0683 83.7697C72.9367 83.815 72.7947 83.8206 72.6599 83.7859C72.5251 83.7512 72.4035 83.6777 72.3101 83.5745C72.2167 83.4713 72.1557 83.343 72.1346 83.2054C72.1135 83.0679 72.1332 82.9271 72.1913 82.8007C72.2494 82.6742 72.3434 82.5676 72.4615 82.4941C72.5797 82.4205 72.7168 82.3833 72.856 82.387C73.0479 82.3986 73.2276 82.4849 73.3566 82.6274C73.4856 82.77 73.5537 82.9574 73.5461 83.1496Z" fill="white"/>
<path d="M75.7441 83.1564C75.7346 83.2954 75.6844 83.4286 75.5998 83.5393C75.5153 83.65 75.4 83.7335 75.2684 83.7792C75.1368 83.825 74.9947 83.8311 74.8597 83.7967C74.7246 83.7624 74.6027 83.6891 74.509 83.586C74.4152 83.4829 74.3539 83.3546 74.3325 83.2169C74.3111 83.0792 74.3307 82.9383 74.3888 82.8116C74.4468 82.685 74.5409 82.5782 74.6591 82.5045C74.7774 82.4308 74.9147 82.3936 75.054 82.3973C75.2453 82.4089 75.4245 82.4947 75.5534 82.6365C75.6823 82.7783 75.7507 82.9649 75.7441 83.1564Z" fill="white"/>
<path d="M77.9455 83.1668C77.9361 83.3051 77.8865 83.4376 77.8027 83.548C77.7189 83.6585 77.6047 83.742 77.4741 83.7884C77.3435 83.8347 77.2021 83.8419 77.0675 83.809C76.9329 83.776 76.8108 83.7045 76.7163 83.6031C76.6218 83.5017 76.559 83.3748 76.5357 83.2382C76.5123 83.1016 76.5294 82.9611 76.5849 82.8341C76.6403 82.7071 76.7317 82.599 76.8478 82.5232C76.9639 82.4475 77.0995 82.4073 77.2381 82.4077C77.4325 82.4149 77.6161 82.4988 77.7487 82.6411C77.8813 82.7834 77.952 82.9724 77.9455 83.1668Z" fill="white"/>
<path d="M80.1435 83.1771C80.1503 83.2744 80.137 83.372 80.1045 83.464C80.0719 83.5559 80.0208 83.6401 79.9543 83.7114C79.8878 83.7828 79.8073 83.8396 79.7179 83.8785C79.6284 83.9174 79.532 83.9374 79.4345 83.9374C79.3369 83.9374 79.2405 83.9174 79.151 83.8785C79.0616 83.8396 78.9811 83.7828 78.9146 83.7114C78.8481 83.6401 78.797 83.5559 78.7644 83.464C78.7319 83.372 78.7186 83.2744 78.7254 83.1771C78.7186 83.0798 78.7319 82.9822 78.7644 82.8903C78.797 82.7984 78.8481 82.7141 78.9146 82.6428C78.9811 82.5715 79.0616 82.5146 79.151 82.4758C79.2405 82.4369 79.3369 82.4168 79.4345 82.4168C79.532 82.4168 79.6284 82.4369 79.7179 82.4758C79.8073 82.5146 79.8878 82.5715 79.9543 82.6428C80.0208 82.7141 80.0719 82.7984 80.1045 82.8903C80.137 82.9822 80.1503 83.0798 80.1435 83.1771Z" fill="white"/>
<path d="M82.3416 83.1875C82.3322 83.3258 82.2826 83.4583 82.1988 83.5688C82.115 83.6792 82.0008 83.7628 81.8702 83.8091C81.7396 83.8555 81.5983 83.8626 81.4636 83.8297C81.329 83.7968 81.2069 83.7252 81.1124 83.6238C81.0179 83.5224 80.9551 83.3956 80.9318 83.259C80.9084 83.1223 80.9255 82.9819 80.981 82.8548C81.0365 82.7278 81.1278 82.6198 81.2439 82.544C81.36 82.4682 81.4957 82.4281 81.6343 82.4284C81.8286 82.4356 82.0122 82.5195 82.1448 82.6618C82.2774 82.8041 82.3482 82.9932 82.3416 83.1875Z" fill="white"/>
<path d="M84.5396 83.1979C84.5301 83.3369 84.4799 83.47 84.3954 83.5807C84.3108 83.6915 84.1956 83.7749 84.064 83.8207C83.9324 83.8664 83.7902 83.8725 83.6552 83.8382C83.5202 83.8038 83.3982 83.7305 83.3045 83.6274C83.2108 83.5243 83.1494 83.396 83.128 83.2583C83.1067 83.1206 83.1262 82.9797 83.1843 82.8531C83.2424 82.7264 83.3364 82.6196 83.4546 82.5459C83.5729 82.4723 83.7102 82.435 83.8495 82.4387C84.0408 82.4503 84.22 82.5362 84.3489 82.678C84.4778 82.8198 84.5463 83.0063 84.5396 83.1979Z" fill="white"/>
</g>
<path d="M81.4169 33.385C81.6566 33.2794 81.86 33.1057 82.0017 32.8855C82.1434 32.6652 82.2173 32.4081 82.214 32.1462C82.2229 31.976 82.1971 31.8057 82.1381 31.6457C82.0791 31.4858 81.9882 31.3395 81.8708 31.2159C81.7535 31.0922 81.6122 30.9937 81.4555 30.9264C81.2989 30.8591 81.1302 30.8244 80.9597 30.8244C80.7892 30.8244 80.6205 30.8591 80.4639 30.9264C80.3072 30.9937 80.1659 31.0922 80.0486 31.2159C79.9312 31.3395 79.8403 31.4858 79.7813 31.6457C79.7223 31.8057 79.6965 31.976 79.7054 32.1462C79.7002 32.4107 79.7734 32.6709 79.9159 32.8938C80.0583 33.1168 80.2637 33.2925 80.5059 33.3988C78.5736 33.6886 78.6599 35.7866 78.6599 35.7866L83.2285 35.8073C83.2285 35.8073 83.3354 33.6714 81.4169 33.385Z" fill="#4CAF4F"/>
<path opacity="0.1" d="M81.4169 33.385C81.6566 33.2794 81.86 33.1057 82.0017 32.8855C82.1434 32.6652 82.2173 32.4081 82.214 32.1462C82.2229 31.976 82.1971 31.8057 82.1381 31.6457C82.0791 31.4858 81.9882 31.3395 81.8708 31.2159C81.7535 31.0922 81.6122 30.9937 81.4555 30.9264C81.2989 30.8591 81.1302 30.8244 80.9597 30.8244C80.7892 30.8244 80.6205 30.8591 80.4639 30.9264C80.3072 30.9937 80.1659 31.0922 80.0486 31.2159C79.9312 31.3395 79.8403 31.4858 79.7813 31.6457C79.7223 31.8057 79.6965 31.976 79.7054 32.1462C79.7002 32.4107 79.7734 32.6709 79.9159 32.8938C80.0583 33.1168 80.2637 33.2925 80.5059 33.3988C78.5736 33.6886 78.6599 35.7866 78.6599 35.7866L83.2285 35.8073C83.2285 35.8073 83.3354 33.6714 81.4169 33.385Z" fill="black"/>
<path d="M88.8407 37.1604L72.5575 37.0865L72.5487 39.0327L88.8319 39.1066L88.8407 37.1604Z" fill="#4CAF4F"/>
<path opacity="0.2" d="M88.8407 37.1604L72.5575 37.0865L72.5487 39.0327L88.8319 39.1066L88.8407 37.1604Z" fill="white"/>
<path d="M28.9781 47.2461H28.816L28.3467 47.2806C28.0927 47.2958 27.8402 47.3293 27.591 47.3806C27.4296 47.4033 27.2695 47.4344 27.1114 47.4738L26.5765 47.6222C25.6662 47.9015 24.8073 48.3268 24.0334 48.8816C23.011 49.6238 22.1572 50.574 21.5283 51.6697C21.1586 52.3014 20.8645 52.9742 20.6518 53.6745C20.4284 54.4356 20.2998 55.2214 20.2688 56.014C20.2483 56.4304 20.2552 56.8477 20.2895 57.2632C20.2895 57.4736 20.3482 57.6841 20.3758 57.8981C20.399 58.1137 20.4394 58.3272 20.4966 58.5364C20.8069 59.9211 21.4364 61.214 22.3351 62.3122C23.2337 63.4103 24.3766 64.2833 25.6725 64.8614C26.6104 65.2661 27.6157 65.4919 28.6365 65.5273C29.6909 65.5853 30.7464 65.434 31.7421 65.0822L32.0457 64.9683H32.0871L32.1216 64.989L36.4728 67.1974L36.3452 67.3078C35.8793 65.8655 35.4308 64.468 34.996 63.1257V63.074L35.0339 63.036C36.0895 61.9728 36.8731 60.6708 37.3182 59.2403C37.7215 57.9326 37.8391 56.5534 37.6633 55.1962C37.5069 53.9901 37.1191 52.8255 36.5212 51.7663C36.0057 50.8565 35.3408 50.04 34.5543 49.3509C33.9054 48.8055 33.1872 48.3484 32.4184 47.9914C31.8367 47.7405 31.2308 47.5497 30.6103 47.422L29.9202 47.3082L29.4198 47.2702L29.1162 47.2495H29.0127C29.0471 47.2457 29.0818 47.2457 29.1162 47.2495H29.4233L29.9236 47.2702L30.6137 47.3703C31.242 47.4886 31.8561 47.6725 32.446 47.9189C33.228 48.2717 33.9592 48.7278 34.6199 49.275C35.4208 49.961 36.0999 50.7777 36.6281 51.6904C37.243 52.7609 37.6428 53.9413 37.8048 55.1652C37.9952 56.5433 37.8857 57.9464 37.4839 59.2783C37.0358 60.7385 36.2401 62.0682 35.1651 63.1533L35.1858 63.0636C35.6206 64.4059 36.0726 65.8034 36.5419 67.2423L36.6074 67.4528L36.4107 67.3527L32.0595 65.1478H32.1354L31.8249 65.2616C30.81 65.6187 29.7351 65.7735 28.6607 65.7171C27.6178 65.6774 26.5915 65.4434 25.6345 65.027C23.809 64.2452 22.2903 62.8864 21.3109 61.1589C20.8602 60.361 20.5311 59.5004 20.3344 58.6054C20.2805 58.3908 20.2402 58.173 20.2136 57.9533C20.186 57.7359 20.1412 57.5219 20.1308 57.308C20.0374 56.0802 20.1672 54.8457 20.5138 53.6642C20.7318 52.9543 21.0341 52.2731 21.4144 51.6352C22.0584 50.5295 22.9299 49.5733 23.9713 48.8299C24.7579 48.2736 25.6313 47.8516 26.5558 47.5808L27.0976 47.4427C27.257 47.4058 27.4183 47.377 27.5807 47.3565C27.8324 47.3099 28.0873 47.2822 28.3432 47.2737L28.816 47.2564C28.8697 47.2492 28.9239 47.2457 28.9781 47.2461Z" fill="#4CAF4F"/>
<path d="M30.945 55.2929H30.3066L28.9264 53.3536V52.0804C28.9264 52.0804 27.9395 52.0183 28.0568 53.6849C28.1741 55.3515 28.0568 54.9271 28.0568 54.9271C28.0568 54.9271 25.9623 54.9271 25.7898 55.1169C25.6172 55.3067 25.6069 57.3287 25.5827 58.4571C25.5695 58.7291 25.6476 58.9977 25.8045 59.2203C25.9614 59.4428 26.1882 59.6066 26.4488 59.6855C26.5219 59.7057 26.5973 59.7162 26.6731 59.7166C27.1976 59.7166 29.8649 59.2921 29.8649 59.2921H30.9657L30.945 55.2929Z" fill="#4CAF4F"/>
<path d="M32.7704 54.9512L32.377 59.3128H31.2866V55.041L32.7704 54.9512Z" fill="#4CAF4F"/>
<path d="M45.7757 143.746V140.795L40.4859 140.757L40.441 145.219L40.7688 145.243C42.2284 145.336 48.1945 145.474 49.1745 145.171C50.2649 144.832 45.7757 143.746 45.7757 143.746Z" fill="#4CAF4F"/>
<path d="M49.2988 144.895C49.2988 144.943 47.3182 144.984 44.8786 144.984C42.439 144.984 40.4584 144.943 40.4584 144.895C40.4584 144.846 42.439 144.805 44.8786 144.805C47.3182 144.805 49.2988 144.846 49.2988 144.895Z" fill="#263238"/>
<path d="M45.8688 144.349C45.824 144.325 45.8688 144.17 45.9758 144.004C46.0828 143.839 46.2277 143.77 46.2622 143.804C46.2967 143.839 46.2243 143.97 46.1207 144.111C46.0172 144.253 45.9137 144.374 45.8688 144.349Z" fill="#263238"/>
<path d="M46.207 144.543C46.1587 144.543 46.1829 144.349 46.2864 144.166C46.3899 143.984 46.5279 143.873 46.5659 143.901C46.6038 143.928 46.5417 144.084 46.4451 144.246C46.3485 144.408 46.2519 144.56 46.207 144.543Z" fill="#263238"/>
<path d="M42.0525 144.881C42.0318 144.881 41.9524 144.819 41.8386 144.688C41.6996 144.519 41.5447 144.364 41.3762 144.225C41.2104 144.093 41.013 144.006 40.8034 143.973C40.6412 143.953 40.5377 143.973 40.5273 143.953C40.517 143.932 40.6171 143.859 40.8068 143.846C41.0573 143.84 41.3016 143.923 41.497 144.08C41.68 144.229 41.8343 144.411 41.9524 144.615C42.0318 144.767 42.0732 144.867 42.0525 144.881Z" fill="#263238"/>
<path d="M45.8861 143.794C45.9103 143.835 45.8206 143.939 45.6687 143.994C45.5169 144.049 45.3823 144.028 45.3754 143.994C45.3685 143.959 45.4755 143.887 45.6066 143.839C45.7378 143.79 45.8585 143.752 45.8861 143.794Z" fill="#263238"/>
<path d="M45.8033 143.507C45.8033 143.559 45.6653 143.601 45.4859 143.604C45.3064 143.607 45.1649 143.566 45.1684 143.518C45.1718 143.469 45.3133 143.425 45.4859 143.421C45.6584 143.418 45.7964 143.459 45.8033 143.507Z" fill="#263238"/>
<path d="M58.8017 143.746V140.795L53.5119 140.757L53.467 145.174L53.7948 145.198C55.2545 145.291 61.224 145.474 62.2005 145.171C63.2909 144.832 58.8017 143.746 58.8017 143.746Z" fill="#4CAF4F"/>
<path d="M62.3248 144.901C62.3248 144.95 60.3476 144.991 57.9046 144.991C55.4615 144.991 53.4878 144.95 53.4878 144.901C53.4878 144.853 55.465 144.812 57.9046 144.812C60.3441 144.812 62.3248 144.853 62.3248 144.901Z" fill="#263238"/>
<path d="M58.8948 144.349C58.8534 144.325 58.8948 144.17 59.0018 144.004C59.1088 143.839 59.2537 143.77 59.2882 143.804C59.3227 143.839 59.2502 143.97 59.1467 144.111C59.0432 144.253 58.9397 144.374 58.8948 144.349Z" fill="#263238"/>
<path d="M59.2331 144.543C59.1882 144.543 59.2089 144.349 59.3159 144.166C59.4229 143.984 59.5574 143.873 59.5954 143.901C59.6333 143.928 59.5678 144.084 59.4712 144.246C59.3745 144.408 59.2814 144.56 59.2331 144.543Z" fill="#263238"/>
<path d="M55.0785 144.881C55.0578 144.881 54.9819 144.819 54.8646 144.688C54.7256 144.519 54.5707 144.364 54.4022 144.225C54.2364 144.093 54.039 144.006 53.8294 143.973C53.6707 143.953 53.5637 143.973 53.5533 143.953C53.543 143.932 53.6431 143.859 53.8328 143.846C54.0833 143.84 54.3276 143.923 54.523 144.08C54.7069 144.228 54.8614 144.41 54.9784 144.615C55.0578 144.767 55.0992 144.867 55.0785 144.881Z" fill="#263238"/>
<path d="M58.9121 143.794C58.9363 143.835 58.8466 143.939 58.6947 143.994C58.5429 144.049 58.4083 144.028 58.4014 143.994C58.3945 143.959 58.5015 143.887 58.6326 143.839C58.7638 143.79 58.8845 143.752 58.9121 143.794Z" fill="#263238"/>
<path d="M58.8362 143.507C58.8362 143.559 58.6982 143.601 58.5188 143.604C58.3393 143.607 58.2013 143.566 58.2048 143.518C58.2082 143.469 58.3463 143.425 58.5188 143.421C58.6913 143.418 58.8362 143.459 58.8362 143.507Z" fill="#263238"/>
<path d="M78.2907 56.1348C78.1527 55.9933 77.8111 56.0623 77.8111 56.0623C77.8453 55.8637 77.8453 55.6606 77.8111 55.4619C77.7489 55.2687 77.3142 55.3067 77.3142 55.3067C77.2941 55.1439 77.2941 54.9794 77.3142 54.8167C77.3176 54.7806 77.3099 54.7444 77.292 54.7129C77.2741 54.6814 77.2469 54.6562 77.2141 54.6407C77.0084 54.5568 76.7874 54.5169 76.5654 54.5234C76.2997 54.3336 77.3763 52.8257 77.7766 52.3426C78.1768 51.8595 78.1044 51.4834 77.7489 51.4834C77.504 51.4834 76.2479 52.9327 75.8615 53.4192C75.475 53.9057 74.4502 55.2584 74.4157 54.1783C74.3812 53.0983 73.9464 52.2839 73.6738 52.1459C73.4012 52.0079 73.1113 52.3322 73.2597 52.6324C73.3901 52.9735 73.4714 53.3313 73.5013 53.6952C73.5387 53.9851 73.5259 54.2793 73.4633 54.5648C73.3489 55.096 73.1931 55.6175 72.9975 56.1245H72.9699C72.9699 56.1245 65.4407 63.3466 64.8955 63.8607C64.4089 64.3231 54.623 63.312 52.6596 63.105C51.9925 63.0074 51.3188 62.9612 50.6445 62.967C49.7922 63.0049 49.6404 63.1257 48.7915 63.1361C46.6478 63.1599 44.5091 63.3479 42.3941 63.6985C41.4364 63.8613 40.5419 64.284 39.808 64.9205C39.0742 65.557 38.5293 66.3828 38.2327 67.3078C36.2555 73.4844 31.7766 88.1046 30.9864 96.317C30.3893 97.3998 29.8503 98.5137 29.3715 99.6538C28.816 101.165 28.9506 101.217 29.1369 101.251C29.6407 101.345 30.2135 98.6324 30.4274 99.288C30.6414 99.9436 29.3405 102.521 29.8684 102.597C30.5586 102.694 31.1072 99.8366 31.1728 99.6089C31.2383 99.3812 31.5799 99.4536 31.5178 99.6676C31.4178 99.9712 30.4481 103.191 31.1245 103.294C31.4971 103.349 31.5385 102.67 31.5385 102.67C31.5385 102.67 32.2286 99.5882 32.5426 99.6503C32.8567 99.7124 32.5219 101.531 32.3632 102.138C32.2045 102.745 32.4253 103.053 32.7497 102.904C32.9705 102.801 33.4985 100.955 33.6434 100.354C33.7883 99.7538 34.1506 98.0906 34.6372 99.0534C35.1237 100.016 35.8621 100.575 36.1658 100.589C36.2342 100.581 36.2987 100.553 36.351 100.508C36.4032 100.463 36.4409 100.404 36.4591 100.337C36.4773 100.271 36.4751 100.2 36.453 100.135C36.4309 100.07 36.3897 100.013 36.3349 99.9712C36.0737 99.7162 35.8495 99.4258 35.6689 99.1086C35.5079 98.8615 35.3912 98.5882 35.3238 98.3011C35.1848 97.7287 35.1039 97.1438 35.0823 96.5551L35.0271 96.2101C35.8 92.3833 38.0256 81.1516 41.2382 73.9778L42.5563 76.69L43.1291 78.6983L39.6164 87.3696L54.5989 87.1729L52.3629 78.5672L55.0785 69.5956C58.015 69.6611 65.5545 69.7716 66.8105 69.2022C68.3909 68.5121 76.5654 58.1879 76.5654 58.1879C77.0982 57.7739 77.6085 57.3316 78.094 56.8629C78.094 56.8629 78.5909 56.4454 78.2907 56.1348Z" fill="#FFBE9D"/>
<path d="M38.9573 80.9619C39.3921 79.4781 41.6246 72.1421 41.6246 72.1421C41.6246 72.1421 42.7219 78.122 42.4321 78.8432C42.1655 79.4606 41.8505 80.0559 41.4901 80.6237C38.9573 84.478 39.2886 86.4069 39.2886 86.4069L54.592 85.9411C54.6265 83.8017 53.3601 78.8259 53.0979 78.0323C52.8356 77.2387 53.7086 74.6404 53.7086 74.6404C53.7086 74.6404 55.4339 72.884 55.3718 71.98C55.3391 71.1679 55.2386 70.3599 55.0716 69.5645L64.3882 69.9096L64.0949 63.595L50.7135 62.2562C50.2477 63.5708 46.0345 62.9256 46.0345 62.9256C41.4866 63.0774 41.2037 63.9125 39.3127 65.3824C37.4218 66.8524 34.2921 79.4678 34.2921 79.4678L38.9573 80.9619Z" fill="#4CAF4F"/>
<path d="M48.0048 79.4678C47.7396 79.5152 47.4695 79.5291 47.2008 79.5092C46.7005 79.5092 46.0138 79.4747 45.2582 79.3988C44.5025 79.3228 43.8193 79.2159 43.3327 79.1193C43.0645 79.0847 42.8014 79.0175 42.5494 78.9191C42.8192 78.9192 43.0884 78.9446 43.3534 78.995C43.8434 79.0572 44.5232 79.1434 45.2754 79.2193C46.0276 79.2952 46.7109 79.347 47.2043 79.3815C47.4733 79.3849 47.7413 79.4138 48.0048 79.4678Z" fill="#263238"/>
<path d="M49.0538 78.1669C48.7885 78.2968 48.5079 78.393 48.2187 78.4533C46.8421 78.815 45.4217 78.9834 43.9986 78.9536C43.7042 78.9632 43.4097 78.9354 43.1222 78.8708C43.4128 78.8341 43.7058 78.8191 43.9986 78.8259C44.5404 78.8087 45.2857 78.7707 46.107 78.6741C46.9282 78.5775 47.6597 78.4395 48.1773 78.329C48.4648 78.2523 48.7578 78.1981 49.0538 78.1669Z" fill="#263238"/>
<path d="M54.202 72.363C54.195 72.6261 54.1592 72.8876 54.095 73.1428C54.0053 73.6224 53.8673 74.2781 53.6913 74.9958C53.5153 75.7135 53.3463 76.376 53.1944 76.8246C53.1334 77.0814 53.0431 77.3303 52.9253 77.5665C52.9445 77.3042 52.9931 77.045 53.0702 76.7935C53.2013 76.2553 53.3497 75.6341 53.5153 74.9544C53.681 74.2746 53.8397 73.6535 53.9708 73.1152C54.0175 72.8561 54.0952 72.6036 54.202 72.363Z" fill="#263238"/>
<path d="M39.1195 80.082C38.3212 79.9587 37.5334 79.7753 36.7627 79.5333C35.9752 79.3492 35.2025 79.107 34.4508 78.8087C35.2487 78.934 36.0364 79.1174 36.8076 79.3574C37.5952 79.5408 38.368 79.7831 39.1195 80.082Z" fill="#263238"/>
<path d="M55.2372 69.4886C55.107 69.511 54.974 69.511 54.8438 69.4886C54.4834 69.4517 54.1295 69.367 53.7914 69.2367C53.2269 69.0246 52.713 68.6968 52.2828 68.2743C51.8525 67.8517 51.5154 67.3439 51.2931 66.7834C51.0474 66.1667 50.9425 65.503 50.986 64.8407C51.0014 64.2943 51.1648 63.7625 51.4588 63.3017C51.6655 62.9913 51.9744 62.763 52.3318 62.6564C52.4273 62.6301 52.526 62.6173 52.6251 62.6185C52.6941 62.6185 52.7286 62.6185 52.7286 62.6185C52.7286 62.6185 52.5837 62.6185 52.3525 62.7116C52.0246 62.8328 51.7465 63.0599 51.5623 63.3569C51.093 64.0953 50.9619 65.4445 51.4622 66.704C51.6951 67.2978 52.0597 67.8311 52.5285 68.2637C52.9126 68.6176 53.355 68.9024 53.8362 69.1056C54.2878 69.2841 54.7576 69.4125 55.2372 69.4886Z" fill="#263238"/>
<path d="M63.2806 69.7854C63.1943 68.7273 63.1667 67.6652 63.1978 66.604C63.1708 65.5437 63.203 64.4827 63.2944 63.426C63.3808 64.483 63.4085 65.5439 63.3772 66.604C63.4063 67.6654 63.374 68.7277 63.2806 69.7854Z" fill="#263238"/>
<path d="M50.6237 62.6426C50.6617 61.8731 50.741 61.0036 50.741 61.0036C50.741 61.0036 52.6458 60.7931 52.7596 58.8263C52.8735 56.8594 52.7596 52.3219 52.7596 52.3219L49.309 50.5552L45.4789 53.5675L46.0689 63.4018L49.5816 63.626C49.8501 63.6335 50.1106 63.5341 50.306 63.3498C50.5013 63.1654 50.6156 62.9111 50.6237 62.6426Z" fill="#FFBE9D"/>
<path d="M50.9654 57.2701C50.9654 57.2701 50.9654 57.308 50.9343 57.3529C50.9087 57.3854 50.8755 57.4112 50.8376 57.4281C50.7997 57.4449 50.7583 57.4523 50.7169 57.4495C50.4961 57.4495 50.2822 57.1942 50.2063 56.8974C50.1702 56.7536 50.1702 56.603 50.2063 56.4592C50.2133 56.3964 50.236 56.3364 50.2721 56.2846C50.3083 56.2327 50.3568 56.1908 50.4133 56.1624C50.4597 56.1433 50.5118 56.1433 50.5582 56.1624C50.5926 56.1795 50.6205 56.2074 50.6376 56.2418C50.6617 56.3005 50.6376 56.3384 50.6376 56.335C50.6376 56.3315 50.6376 56.3005 50.6031 56.266C50.585 56.2413 50.5585 56.2241 50.5286 56.2177C50.4987 56.2113 50.4674 56.2162 50.4409 56.2315C50.3986 56.2571 50.3634 56.2929 50.3387 56.3358C50.3139 56.3786 50.3004 56.427 50.2994 56.4765C50.2704 56.6048 50.2704 56.738 50.2994 56.8664C50.3684 57.1355 50.5548 57.3529 50.7204 57.3736C50.7528 57.378 50.7858 57.3757 50.8172 57.3668C50.8487 57.3579 50.878 57.3426 50.9033 57.3219C50.9447 57.2942 50.9585 57.2666 50.9654 57.2701Z" fill="#EB996E"/>
<path d="M53.9433 51.2591C53.6776 50.3551 52.7149 49.9065 51.8384 49.6581C50.5031 49.2785 49.0607 49.1129 47.7564 49.5925C46.4521 50.0721 44.8855 50.9141 44.8855 52.353C44.116 52.2909 43.6743 52.9637 43.3707 53.7988C43.1765 54.3075 43.0602 54.8426 43.0256 55.386C42.929 57.2701 42.401 59.8718 41.1795 61.2521C40.4894 62.0216 39.5336 62.5529 39.1402 63.5122C38.7952 64.3438 38.9746 65.3307 38.6537 66.1726C38.3673 66.9145 37.7358 67.4424 37.2735 68.0877C36.8024 68.8197 36.5252 69.6595 36.4678 70.528C36.4105 71.3966 36.5749 72.2655 36.9457 73.0531C37.3191 73.8205 37.8448 74.5038 38.4908 75.0615C39.1369 75.6191 39.8897 76.0394 40.7034 76.2967C42.3151 76.787 44.0339 76.8038 45.655 76.345C46.8716 76.0541 48.0065 75.4914 48.9744 74.6991C49.9649 73.8902 50.6451 72.7638 50.8999 71.5107C51.1449 70.1029 50.7515 68.6709 50.4582 67.2699C49.5403 62.8428 49.8026 62.6116 50.962 58.5019C50.9896 58.4295 51.0034 58.3536 51.0241 58.2811C51.0448 58.2086 51.0552 58.1741 51.069 58.1189C51.1019 57.9565 51.1192 57.7912 51.1207 57.6255C50.9514 57.6885 50.7676 57.7018 50.5909 57.6639C50.4143 57.626 50.2521 57.5384 50.1235 57.4115C49.9946 57.2762 49.9047 57.1086 49.8634 56.9263C49.8221 56.7441 49.8309 56.554 49.8889 56.3764C49.9703 56.1821 50.0916 56.007 50.2449 55.8626C50.3983 55.7181 50.5803 55.6075 50.7791 55.5379C51.1621 55.3791 51.5727 55.2963 51.9489 55.1204C52.7459 54.7408 53.298 53.954 53.6742 53.1294C53.9834 52.5578 54.0788 51.8947 53.9433 51.2591Z" fill="#263238"/>
<path d="M51.1034 57.3632C51.1763 57.4709 51.2365 57.5867 51.2828 57.7083C51.3863 57.9257 51.5244 58.2328 51.6762 58.5882L51.7038 58.6537H51.6313L51.2863 58.6848C51.0482 58.6848 50.8481 58.7297 50.6134 58.7262C50.593 58.7216 50.574 58.7119 50.5584 58.6981C50.5427 58.6842 50.5307 58.6666 50.5237 58.6468C50.5134 58.6155 50.5134 58.5816 50.5237 58.5502C50.5317 58.5037 50.542 58.4576 50.5548 58.4122L50.6169 58.1672C50.6481 58.0038 50.6967 57.8441 50.7618 57.691C50.7554 57.8576 50.7311 58.0231 50.6893 58.1845L50.641 58.4295C50.6238 58.5123 50.5927 58.6399 50.641 58.6296C50.8135 58.6296 51.0585 58.5916 51.2863 58.5778L51.6313 58.5468L51.5865 58.6227C51.4381 58.2776 51.3139 57.9533 51.2414 57.729C51.1779 57.6144 51.1314 57.4912 51.1034 57.3632Z" fill="#4CAF4F"/>
<path d="M39.2885 86.4069L54.5919 85.9411L61.2516 111.938L60.0266 141.758H51.935L52.9253 112.573L47.0075 94.4744L47.9185 142.914L39.7406 143.035L38.8814 97.5041C38.8434 96.2377 38.4293 93.384 38.5846 92.128L39.2885 86.4069Z" fill="#263238"/>
<path d="M49.0434 94.8437C48.7929 94.8594 48.5414 94.8444 48.2946 94.7988C47.8322 94.7436 47.2008 94.647 46.5072 94.5089C45.8136 94.3709 45.1925 94.2122 44.744 94.0845C44.5042 94.0318 44.2722 93.9483 44.0538 93.8361C44.0538 93.7843 45.1787 94.0535 46.559 94.333C47.9392 94.6125 49.0503 94.7919 49.0434 94.8437Z" fill="#455A64"/>
<path d="M59.9439 140.122C59.9439 140.171 58.1116 140.212 55.8515 140.212C53.5913 140.212 51.7556 140.171 51.7556 140.122C51.7556 140.074 53.5879 140.033 55.8515 140.033C58.1151 140.033 59.9439 140.071 59.9439 140.122Z" fill="#455A64"/>
<path d="M47.846 141.654C47.846 141.706 46.0655 141.744 43.8709 141.744C41.6764 141.744 39.8993 141.706 39.8993 141.654C39.8993 141.603 41.6798 141.565 43.8709 141.565C46.0621 141.565 47.846 141.606 47.846 141.654Z" fill="#455A64"/>
<path d="M46.7902 141.53C46.7419 141.53 46.528 130.947 46.3106 117.894C46.0932 104.84 45.9655 94.2501 46.0104 94.2501C46.0553 94.2501 46.2761 104.83 46.49 117.89C46.704 130.951 46.842 141.53 46.7902 141.53Z" fill="#455A64"/>
<path d="M58.8569 140.122C58.8531 140.075 58.8531 140.028 58.8569 139.981V139.567C58.8569 139.194 58.8845 138.659 58.9052 137.98C58.9535 136.599 59.0225 134.595 59.1088 132.138C59.2951 127.196 59.5573 120.385 59.8437 112.866C59.8437 112.794 59.8437 112.725 59.8437 112.663V112.687C58.0322 105.44 56.3931 98.8636 55.2027 94.1052L53.8224 88.4773C53.6637 87.8182 53.5429 87.3041 53.4567 86.9452C53.4153 86.7761 53.3877 86.645 53.3635 86.5449C53.3501 86.5 53.342 86.4537 53.3394 86.4069C53.3573 86.4504 53.3711 86.4955 53.3808 86.5415C53.4084 86.6381 53.4429 86.7692 53.4912 86.9349C53.5843 87.2799 53.7189 87.8044 53.8914 88.46C54.2365 89.792 54.723 91.7105 55.3303 94.0742C56.5312 98.8291 58.1874 105.389 60.0232 112.645V112.669C60.0232 112.732 60.0232 112.804 60.0232 112.873C59.7161 120.392 59.4366 127.2 59.233 132.141C59.126 134.601 59.0363 136.592 58.9742 137.98C58.9397 138.67 58.9121 139.194 58.8948 139.567C58.8948 139.743 58.8741 139.881 58.8707 139.981C58.8712 140.028 58.8665 140.076 58.8569 140.122Z" fill="#455A64"/>
<path d="M56.2172 112.055C55.636 112.246 55.0373 112.379 54.4298 112.452C53.6845 112.58 53.0496 112.669 52.7632 112.683V112.614C52.8564 112.642 52.9047 112.659 52.9047 112.673C52.9047 112.687 52.846 112.673 52.7494 112.673H52.5424L52.7494 112.611C53.0185 112.531 53.6535 112.4 54.3988 112.266C54.9966 112.136 55.6057 112.066 56.2172 112.055Z" fill="#455A64"/>
<path d="M56.0757 113.046C55.5375 113.07 54.9981 113.046 54.4643 112.973C53.9253 112.962 53.3883 112.903 52.8597 112.797C53.9381 112.709 55.0236 112.793 56.0757 113.046Z" fill="#455A64"/>
<path opacity="0.2" d="M39.223 86.9556C39.4043 87.1883 39.6325 87.3802 39.893 87.5187C40.1534 87.6573 40.4401 87.7393 40.7344 87.7596C41.3507 87.8326 41.9742 87.821 42.5874 87.7251C46.5383 87.2868 50.7239 86.8831 54.592 85.9411C49.5852 86.2206 44.2954 86.1274 39.2886 86.4069L39.2368 86.8348" fill="black"/>
<g opacity="0.2">
<path d="M44.3816 94.012L47.2042 104.964L47.0075 94.4744L44.3816 94.012Z" fill="black"/>
</g>
</svg>
