<svg width="23" height="20" viewBox="0 0 23 20" fill="none" xmlns="http://www.w3.org/2000/svg">
<g filter="url(#filter0_d_212_1429)">
<path d="M5.72529 5.89359V6.06053H5.89222H17.9114H18.0784V5.89359V5.14239C18.0784 4.76607 17.9289 4.40516 17.6628 4.13906C17.3967 3.87295 17.0357 3.72346 16.6594 3.72346H7.14422C6.7679 3.72346 6.40699 3.87295 6.14089 4.13906C5.87479 4.40516 5.72529 4.76607 5.72529 5.14239V5.89359ZM18.0784 6.89519V6.72826H17.9114H5.89222H5.72529V6.89519V11.6528C5.72529 12.0291 5.87479 12.39 6.14089 12.6561C6.40699 12.9222 6.7679 13.0717 7.14422 13.0717H16.6594C17.0357 13.0717 17.3967 12.9222 17.6628 12.6561C17.9289 12.39 18.0784 12.0291 18.0784 11.6528V6.89519ZM5.05756 5.14239C5.05756 4.58898 5.2774 4.05822 5.66873 3.6669C6.06005 3.27557 6.59081 3.05573 7.14422 3.05573H16.6594C17.2128 3.05573 17.7436 3.27557 18.1349 3.6669C18.5262 4.05822 18.7461 4.58898 18.7461 5.14239V11.6528C18.7461 12.2062 18.5262 12.737 18.1349 13.1283C17.7436 13.5196 17.2128 13.7395 16.6594 13.7395H7.14422C6.59081 13.7395 6.06005 13.5196 5.66873 13.1283C5.2774 12.737 5.05756 12.2062 5.05756 11.6528V5.14239ZM14.4058 10.0669H15.9082C15.9968 10.0669 16.0817 10.1021 16.1443 10.1647C16.2069 10.2273 16.2421 10.3122 16.2421 10.4008C16.2421 10.4893 16.2069 10.5743 16.1443 10.6369C16.0817 10.6995 15.9968 10.7347 15.9082 10.7347H14.4058C14.3173 10.7347 14.2324 10.6995 14.1697 10.6369C14.1071 10.5743 14.072 10.4893 14.072 10.4008C14.072 10.3122 14.1071 10.2273 14.1697 10.1647C14.2324 10.1021 14.3173 10.0669 14.4058 10.0669Z" fill="#4CAF4F" stroke="#4CAF4F" stroke-width="0.333867"/>
</g>
<defs>
<filter id="filter0_d_212_1429" x="-0.110962" y="0.384766" width="24.0256" height="24.0256" filterUnits="userSpaceOnUse" color-interpolation-filters="sRGB">
<feFlood flood-opacity="0" result="BackgroundImageFix"/>
<feColorMatrix in="SourceAlpha" type="matrix" values="0 0 0 0 0 0 0 0 0 0 0 0 0 0 0 0 0 0 127 0" result="hardAlpha"/>
<feOffset dy="4"/>
<feGaussianBlur stdDeviation="2"/>
<feComposite in2="hardAlpha" operator="out"/>
<feColorMatrix type="matrix" values="0 0 0 0 0 0 0 0 0 0 0 0 0 0 0 0 0 0 0.25 0"/>
<feBlend mode="normal" in2="BackgroundImageFix" result="effect1_dropShadow_212_1429"/>
<feBlend mode="normal" in="SourceGraphic" in2="effect1_dropShadow_212_1429" result="shape"/>
</filter>
</defs>
</svg>
